<mxfile host="app.diagrams.net" agent="Mozilla/5.0 (Macintosh; Intel Mac OS X 10_15_7) AppleWebKit/537.36 (KHTML, like Gecko) Chrome/137.0.0.0 Safari/537.36" version="27.1.3">
  <diagram name="第 1 页" id="AX5IpWTDYk6SgNOTNY0j">
    <mxGraphModel dx="1139" dy="755" grid="1" gridSize="10" guides="1" tooltips="1" connect="1" arrows="1" fold="1" page="1" pageScale="1" pageWidth="827" pageHeight="1169" math="0" shadow="0">
      <root>
        <mxCell id="0" />
        <mxCell id="1" parent="0" />
        <mxCell id="JqXczepUYyAbhjsZAbYK-6" style="edgeStyle=orthogonalEdgeStyle;rounded=0;orthogonalLoop=1;jettySize=auto;html=1;exitX=1;exitY=0.5;exitDx=0;exitDy=0;entryX=0;entryY=0.5;entryDx=0;entryDy=0;sketch=1;curveFitting=1;jiggle=2;" edge="1" parent="1" source="JqXczepUYyAbhjsZAbYK-1" target="JqXczepUYyAbhjsZAbYK-2">
          <mxGeometry relative="1" as="geometry" />
        </mxCell>
        <mxCell id="JqXczepUYyAbhjsZAbYK-1" value="Cursor" style="rounded=1;whiteSpace=wrap;html=1;sketch=1;curveFitting=1;jiggle=2;fillColor=#d5e8d4;strokeColor=#82b366;" vertex="1" parent="1">
          <mxGeometry x="120" y="160" width="120" height="60" as="geometry" />
        </mxCell>
        <mxCell id="JqXczepUYyAbhjsZAbYK-7" style="edgeStyle=orthogonalEdgeStyle;rounded=0;orthogonalLoop=1;jettySize=auto;html=1;exitX=1;exitY=0.5;exitDx=0;exitDy=0;sketch=1;curveFitting=1;jiggle=2;entryX=0;entryY=0.5;entryDx=0;entryDy=0;" edge="1" parent="1" source="JqXczepUYyAbhjsZAbYK-2" target="JqXczepUYyAbhjsZAbYK-3">
          <mxGeometry relative="1" as="geometry" />
        </mxCell>
        <mxCell id="JqXczepUYyAbhjsZAbYK-8" style="edgeStyle=orthogonalEdgeStyle;rounded=0;orthogonalLoop=1;jettySize=auto;html=1;exitX=1;exitY=0.5;exitDx=0;exitDy=0;sketch=1;curveFitting=1;jiggle=2;" edge="1" parent="1" source="JqXczepUYyAbhjsZAbYK-2" target="JqXczepUYyAbhjsZAbYK-4">
          <mxGeometry relative="1" as="geometry" />
        </mxCell>
        <mxCell id="JqXczepUYyAbhjsZAbYK-23" style="edgeStyle=orthogonalEdgeStyle;rounded=0;orthogonalLoop=1;jettySize=auto;html=1;exitX=1;exitY=0.5;exitDx=0;exitDy=0;entryX=0;entryY=0.5;entryDx=0;entryDy=0;sketch=1;curveFitting=1;jiggle=2;" edge="1" parent="1" source="JqXczepUYyAbhjsZAbYK-2" target="JqXczepUYyAbhjsZAbYK-22">
          <mxGeometry relative="1" as="geometry" />
        </mxCell>
        <mxCell id="JqXczepUYyAbhjsZAbYK-2" value="Jira MCP" style="rounded=1;whiteSpace=wrap;html=1;sketch=1;curveFitting=1;jiggle=2;fillColor=#dae8fc;strokeColor=#6c8ebf;" vertex="1" parent="1">
          <mxGeometry x="320" y="160" width="120" height="60" as="geometry" />
        </mxCell>
        <mxCell id="JqXczepUYyAbhjsZAbYK-3" value="Create Jira Task" style="rounded=1;whiteSpace=wrap;html=1;sketch=1;curveFitting=1;jiggle=2;fillColor=#fff2cc;strokeColor=#d6b656;" vertex="1" parent="1">
          <mxGeometry x="570" y="90" width="120" height="60" as="geometry" />
        </mxCell>
        <mxCell id="JqXczepUYyAbhjsZAbYK-4" value="Write Project Desc" style="rounded=1;whiteSpace=wrap;html=1;sketch=1;curveFitting=1;jiggle=2;fillColor=#fff2cc;strokeColor=#d6b656;" vertex="1" parent="1">
          <mxGeometry x="570" y="160" width="120" height="60" as="geometry" />
        </mxCell>
        <mxCell id="JqXczepUYyAbhjsZAbYK-9" value="" style="shape=flexArrow;endArrow=classic;html=1;rounded=0;sketch=1;curveFitting=1;jiggle=2;" edge="1" parent="1">
          <mxGeometry width="50" height="50" relative="1" as="geometry">
            <mxPoint x="379.5" y="250" as="sourcePoint" />
            <mxPoint x="379.5" y="300" as="targetPoint" />
          </mxGeometry>
        </mxCell>
        <mxCell id="JqXczepUYyAbhjsZAbYK-10" style="edgeStyle=orthogonalEdgeStyle;rounded=0;orthogonalLoop=1;jettySize=auto;html=1;exitX=1;exitY=0.5;exitDx=0;exitDy=0;entryX=0;entryY=0.5;entryDx=0;entryDy=0;sketch=1;curveFitting=1;jiggle=2;" edge="1" parent="1" source="JqXczepUYyAbhjsZAbYK-11" target="JqXczepUYyAbhjsZAbYK-14">
          <mxGeometry relative="1" as="geometry" />
        </mxCell>
        <mxCell id="JqXczepUYyAbhjsZAbYK-21" style="edgeStyle=orthogonalEdgeStyle;rounded=0;orthogonalLoop=1;jettySize=auto;html=1;exitX=0.5;exitY=1;exitDx=0;exitDy=0;entryX=0.5;entryY=0;entryDx=0;entryDy=0;sketch=1;curveFitting=1;jiggle=2;" edge="1" parent="1" source="JqXczepUYyAbhjsZAbYK-11" target="JqXczepUYyAbhjsZAbYK-20">
          <mxGeometry relative="1" as="geometry" />
        </mxCell>
        <mxCell id="JqXczepUYyAbhjsZAbYK-11" value="Cursor" style="rounded=1;whiteSpace=wrap;html=1;sketch=1;curveFitting=1;jiggle=2;fillColor=#d5e8d4;strokeColor=#82b366;" vertex="1" parent="1">
          <mxGeometry x="120" y="320" width="120" height="60" as="geometry" />
        </mxCell>
        <mxCell id="JqXczepUYyAbhjsZAbYK-12" style="edgeStyle=orthogonalEdgeStyle;rounded=0;orthogonalLoop=1;jettySize=auto;html=1;exitX=1;exitY=0.5;exitDx=0;exitDy=0;sketch=1;curveFitting=1;jiggle=2;" edge="1" parent="1" source="JqXczepUYyAbhjsZAbYK-14" target="JqXczepUYyAbhjsZAbYK-15">
          <mxGeometry relative="1" as="geometry" />
        </mxCell>
        <mxCell id="JqXczepUYyAbhjsZAbYK-19" style="edgeStyle=orthogonalEdgeStyle;rounded=0;orthogonalLoop=1;jettySize=auto;html=1;exitX=0;exitY=0.75;exitDx=0;exitDy=0;entryX=1;entryY=0.75;entryDx=0;entryDy=0;sketch=1;curveFitting=1;jiggle=2;" edge="1" parent="1" source="JqXczepUYyAbhjsZAbYK-14" target="JqXczepUYyAbhjsZAbYK-11">
          <mxGeometry relative="1" as="geometry" />
        </mxCell>
        <mxCell id="JqXczepUYyAbhjsZAbYK-14" value="Jira MCP" style="rounded=1;whiteSpace=wrap;html=1;sketch=1;curveFitting=1;jiggle=2;fillColor=#dae8fc;strokeColor=#6c8ebf;" vertex="1" parent="1">
          <mxGeometry x="320" y="320" width="120" height="60" as="geometry" />
        </mxCell>
        <mxCell id="JqXczepUYyAbhjsZAbYK-18" style="edgeStyle=orthogonalEdgeStyle;rounded=0;orthogonalLoop=1;jettySize=auto;html=1;exitX=0;exitY=0.75;exitDx=0;exitDy=0;entryX=1;entryY=0.75;entryDx=0;entryDy=0;sketch=1;curveFitting=1;jiggle=2;" edge="1" parent="1" source="JqXczepUYyAbhjsZAbYK-15" target="JqXczepUYyAbhjsZAbYK-14">
          <mxGeometry relative="1" as="geometry" />
        </mxCell>
        <mxCell id="JqXczepUYyAbhjsZAbYK-15" value="Read Jira Desc" style="rounded=1;whiteSpace=wrap;html=1;sketch=1;curveFitting=1;jiggle=2;fillColor=#fff2cc;strokeColor=#d6b656;" vertex="1" parent="1">
          <mxGeometry x="570" y="320" width="120" height="60" as="geometry" />
        </mxCell>
        <mxCell id="JqXczepUYyAbhjsZAbYK-25" value="" style="edgeStyle=orthogonalEdgeStyle;rounded=0;orthogonalLoop=1;jettySize=auto;html=1;sketch=1;curveFitting=1;jiggle=2;" edge="1" parent="1" source="JqXczepUYyAbhjsZAbYK-20" target="JqXczepUYyAbhjsZAbYK-24">
          <mxGeometry relative="1" as="geometry" />
        </mxCell>
        <mxCell id="JqXczepUYyAbhjsZAbYK-20" value="Generate Code" style="rounded=1;whiteSpace=wrap;html=1;sketch=1;curveFitting=1;jiggle=2;fillColor=#fff2cc;strokeColor=#d6b656;" vertex="1" parent="1">
          <mxGeometry x="120" y="410" width="120" height="60" as="geometry" />
        </mxCell>
        <mxCell id="JqXczepUYyAbhjsZAbYK-22" value="Write AC" style="rounded=1;whiteSpace=wrap;html=1;sketch=1;curveFitting=1;jiggle=2;fillColor=#fff2cc;strokeColor=#d6b656;" vertex="1" parent="1">
          <mxGeometry x="570" y="230" width="120" height="60" as="geometry" />
        </mxCell>
        <mxCell id="JqXczepUYyAbhjsZAbYK-24" value="Test AC" style="rounded=1;whiteSpace=wrap;html=1;sketch=1;curveFitting=1;jiggle=2;fillColor=#fff2cc;strokeColor=#d6b656;" vertex="1" parent="1">
          <mxGeometry x="120" y="504" width="120" height="60" as="geometry" />
        </mxCell>
      </root>
    </mxGraphModel>
  </diagram>
</mxfile>
